<svg width="24" height="22" viewBox="0 0 24 22" fill="none" xmlns="http://www.w3.org/2000/svg">
<path d="M11.5789 0C13.1144 0 14.587 0.579462 15.6727 1.61091C16.7585 2.64236 17.3684 4.04131 17.3684 5.5C17.3684 6.95869 16.7585 8.35764 15.6727 9.38909C14.587 10.4205 13.1144 11 11.5789 11C10.0435 11 8.57091 10.4205 7.48517 9.38909C6.39944 8.35764 5.78947 6.95869 5.78947 5.5C5.78947 4.04131 6.39944 2.64236 7.48517 1.61091C8.57091 0.579462 10.0435 0 11.5789 0ZM11.5789 13.75C17.9763 13.75 23.1579 16.2113 23.1579 19.25V22H0V19.25C0 16.2113 5.18158 13.75 11.5789 13.75Z" fill="white"/>
</svg>
