<svg width="55" height="55" viewBox="0 0 55 55" fill="none" xmlns="http://www.w3.org/2000/svg">
<path d="M18.3333 16.0417V25.2083L4.58333 13.75L18.3333 2.29167V11.4583H29.7917C34.654 11.4583 39.3171 13.3899 42.7553 16.828C46.1935 20.2662 48.125 24.9294 48.125 29.7917C48.125 34.654 46.1935 39.3171 42.7553 42.7553C39.3171 46.1935 34.654 48.125 29.7917 48.125H9.16666V43.5417H29.7917C33.4384 43.5417 36.9358 42.093 39.5144 39.5144C42.093 36.9358 43.5417 33.4384 43.5417 29.7917C43.5417 26.1449 42.093 22.6476 39.5144 20.069C36.9358 17.4903 33.4384 16.0417 29.7917 16.0417H18.3333Z" fill="white"/>
</svg>
