<svg width="33" height="29" viewBox="0 0 33 29" fill="none" xmlns="http://www.w3.org/2000/svg">
<path d="M3.37498 28.625C2.5729 28.625 1.88602 28.3392 1.31436 27.7675C0.74269 27.1958 0.457343 26.5094 0.458315 25.7083V6.74999H3.37498V25.7083H28.1666V28.625H3.37498ZM9.20831 22.7917C8.40623 22.7917 7.71936 22.5058 7.14769 21.9342C6.57602 21.3625 6.29068 20.6761 6.29165 19.875V3.83332C6.29165 3.03124 6.57748 2.34437 7.14915 1.7727C7.72081 1.20103 8.4072 0.915687 9.20831 0.916659H16.5L19.4166 3.83332H29.625C30.4271 3.83332 31.1139 4.11916 31.6856 4.69082C32.2573 5.26249 32.5426 5.94888 32.5416 6.74999V19.875C32.5416 20.6771 32.2558 21.3639 31.6841 21.9356C31.1125 22.5073 30.4261 22.7926 29.625 22.7917H9.20831ZM9.20831 19.875H29.625V6.74999H18.2135L15.2969 3.83332H9.20831V19.875Z" fill="#F76980"/>
</svg>
