<svg width="138" height="138" viewBox="0 0 138 138" fill="none" xmlns="http://www.w3.org/2000/svg">
<path d="M78.3684 22H40.4737C35.2158 22 31 26.1957 31 31.4286V106.857C31 112.09 35.2158 116.286 40.4737 116.286H77.4684C74.9579 111.996 73.6316 107.093 73.6316 102.143C73.6316 86.5386 86.3737 73.8571 102.053 73.8571C103.663 73.8571 105.226 73.9986 106.789 74.2343V50.2857L78.3684 22ZM73.6316 55V29.0714L99.6842 55H73.6316ZM121 106.857H106.789V121H97.3158V106.857H83.1053V97.4286H97.3158V83.2857H106.789V97.4286H121V106.857Z" fill="white"/>
</svg>
