<svg width="138" height="138" viewBox="0 0 138 138" fill="none" xmlns="http://www.w3.org/2000/svg">
<path d="M86.25 92C87.8792 92 89.2458 91.448 90.3498 90.344C91.4538 89.24 92.0038 87.8753 92 86.25V80.5H97.75C99.3792 80.5 100.746 79.948 101.85 78.844C102.954 77.74 103.504 76.3753 103.5 74.75C103.5 73.1208 102.948 71.7543 101.844 70.6503C100.74 69.5463 99.3753 68.9962 97.75 69H92V63.25C92 61.6208 91.448 60.2543 90.344 59.1503C89.24 58.0463 87.8753 57.4962 86.25 57.5C84.6208 57.5 83.2543 58.052 82.1503 59.156C81.0463 60.26 80.4962 61.6247 80.5 63.25V69H74.75C73.1208 69 71.7543 69.552 70.6503 70.656C69.5463 71.76 68.9962 73.1247 69 74.75C69 76.3792 69.552 77.7458 70.656 78.8498C71.76 79.9538 73.1247 80.5038 74.75 80.5H80.5V86.25C80.5 87.8792 81.052 89.2458 82.156 90.3498C83.26 91.4538 84.6247 92.0038 86.25 92ZM23 115C19.8375 115 17.1293 113.873 14.8753 111.619C12.6213 109.365 11.4962 106.659 11.5 103.5V34.5C11.5 31.3375 12.627 28.6293 14.881 26.3753C17.135 24.1213 19.8413 22.9962 23 23H52.7563C54.2896 23 55.752 23.2875 57.1435 23.8625C58.535 24.4375 59.7559 25.2521 60.8063 26.3063L69 34.5H115C118.163 34.5 120.871 35.627 123.125 37.881C125.379 40.135 126.504 42.8413 126.5 46V103.5C126.5 106.663 125.373 109.371 123.119 111.625C120.865 113.879 118.159 115.004 115 115H23Z" fill="white"/>
</svg>
