<svg width="25" height="24" viewBox="0 0 25 24" fill="none" xmlns="http://www.w3.org/2000/svg">
<path d="M13.9591 13.0202H13.4591V13.5202V21.9704C13.4591 22.281 13.3321 22.5821 13.1007 22.8065C12.8688 23.0314 12.5512 23.1604 12.2169 23.1604C11.8826 23.1604 11.565 23.0314 11.3331 22.8065C11.1017 22.5821 10.9747 22.281 10.9747 21.9704V13.5202V13.0202H10.4747H1.76348C1.42919 13.0202 1.11154 12.8913 0.879665 12.6663C0.648304 12.4419 0.52124 12.1408 0.52124 11.8302C0.52124 11.5196 0.648304 11.2185 0.879665 10.9941C1.11154 10.7691 1.42919 10.6402 1.76348 10.6402H10.4747H10.9747V10.1402V1.69003C10.9747 1.37941 11.1017 1.07831 11.3331 0.853887C11.565 0.628958 11.8826 0.5 12.2169 0.5C12.5512 0.5 12.8688 0.628958 13.1007 0.853887C13.3321 1.07831 13.4591 1.37941 13.4591 1.69003V10.1402V10.6402H13.9591H22.6703C23.0046 10.6402 23.3222 10.7691 23.5541 10.9941C23.7855 11.2185 23.9125 11.5196 23.9125 11.8302C23.9125 12.1408 23.7855 12.4419 23.5541 12.6663C23.3222 12.8913 23.0046 13.0202 22.6703 13.0202H13.9591Z" fill="white" stroke="#313849"/>
</svg>
