<svg width="23" height="23" viewBox="0 0 23 23" fill="none" xmlns="http://www.w3.org/2000/svg">
<path d="M20.2928 12.626C20.342 12.2667 20.3667 11.8953 20.3667 11.5C20.3667 11.1167 20.342 10.7333 20.2805 10.374L22.7804 8.48125C22.8881 8.39488 22.9617 8.27485 22.9887 8.1416C23.0156 8.00836 22.9942 7.87015 22.9282 7.75052L20.5637 3.77344C20.4941 3.65313 20.3829 3.56066 20.25 3.51242C20.117 3.46419 19.9707 3.46329 19.8371 3.5099L16.8939 4.6599C16.2781 4.20469 15.6255 3.82136 14.8989 3.53386L14.4556 0.491149C14.4337 0.354024 14.3621 0.229054 14.2536 0.138933C14.1452 0.0488128 14.0071 -0.000480969 13.8644 3.53792e-06H9.13555C8.84 3.53792e-06 8.60602 0.203649 8.55676 0.491149L8.11342 3.53386C7.38685 3.82136 6.72185 4.21667 6.11842 4.6599L3.17518 3.5099C2.90426 3.41407 2.59639 3.5099 2.44861 3.77344L0.096478 7.75052C-0.0512998 8.00209 -0.00204065 8.31354 0.244256 8.48125L2.74416 10.374C2.68259 10.7333 2.63333 11.1286 2.63333 11.5C2.63333 11.8714 2.65796 12.2667 2.71953 12.626L0.219626 14.5188C0.111901 14.6051 0.0382949 14.7252 0.0113487 14.8584C-0.0155975 14.9916 0.00578338 15.1299 0.0718484 15.2495L2.43629 19.2266C2.58407 19.4901 2.89194 19.574 3.16287 19.4901L6.10611 18.3401C6.72185 18.7953 7.37454 19.1786 8.10111 19.4661L8.54444 22.5089C8.60602 22.7964 8.84 23 9.13555 23H13.8644C14.16 23 14.4063 22.7964 14.4432 22.5089L14.8866 19.4661C15.6131 19.1786 16.2781 18.7953 16.8816 18.3401L19.8248 19.4901C20.0957 19.5859 20.4036 19.4901 20.5514 19.2266L22.9158 15.2495C23.0636 14.9859 23.002 14.6865 22.7681 14.5188L20.2928 12.626ZM11.5 15.8125C9.06166 15.8125 7.06666 13.8719 7.06666 11.5C7.06666 9.12813 9.06166 7.1875 11.5 7.1875C13.9383 7.1875 15.9333 9.12813 15.9333 11.5C15.9333 13.8719 13.9383 15.8125 11.5 15.8125Z" fill="white"/>
</svg>
